<?xml version="1.0" standalone="no"?>
<!DOCTYPE svg PUBLIC "-//W3C//DTD SVG 20010904//EN"
 "http://www.w3.org/TR/2001/REC-SVG-20010904/DTD/svg10.dtd">
<svg version="1.0" xmlns="http://www.w3.org/2000/svg"
 width="388.000000pt" height="500.000000pt" viewBox="0 0 388.000000 500.000000"
 preserveAspectRatio="xMidYMid meet">

<g transform="translate(0.000000,500.000000) scale(0.100000,-0.100000)"
fill="#000000" stroke="none">
<path d="M1107 4853 c-6 -10 0 -120 7 -131 3 -5 10 -46 16 -93 15 -109 25
-179 44 -314 9 -60 18 -123 21 -140 23 -166 47 -323 51 -336 2 -9 7 -36 9 -60
3 -24 11 -78 18 -119 8 -41 13 -88 13 -105 -1 -33 -6 -34 -96 -22 -25 3 -67 9
-95 12 -27 3 -75 10 -105 15 -57 10 -196 29 -240 34 -14 2 -59 8 -100 15 -132
21 -202 31 -329 46 -68 9 -141 19 -162 24 -42 10 -54 5 -38 -16 6 -7 8 -13 3
-13 -5 0 2 -7 14 -16 12 -8 22 -21 22 -29 0 -7 3 -15 8 -17 12 -5 82 -96 82
-106 0 -6 4 -12 8 -14 8 -3 94 -111 137 -173 11 -16 30 -39 43 -52 12 -13 22
-26 22 -28 0 -5 53 -76 79 -106 17 -21 98 -126 171 -223 138 -183 152 -200
172 -215 21 -14 19 -15 -38 -28 -32 -7 -72 -16 -89 -19 -16 -3 -75 -16 -130
-29 -55 -13 -116 -26 -135 -30 -65 -13 -245 -57 -255 -63 -5 -3 -16 -7 -25 -8
-8 -2 -27 -4 -43 -7 -36 -5 -43 -14 -18 -22 12 -3 21 -11 21 -16 0 -5 5 -9 10
-9 6 0 30 -19 54 -42 23 -24 60 -56 80 -73 21 -16 48 -39 60 -50 13 -11 40
-33 61 -50 21 -16 43 -35 49 -40 6 -6 34 -28 61 -50 28 -22 52 -42 55 -45 3
-3 41 -35 85 -70 44 -36 98 -80 121 -100 22 -19 50 -42 62 -50 12 -8 22 -21
22 -30 -1 -8 -54 -47 -123 -88 -67 -41 -149 -91 -182 -113 -33 -22 -73 -47
-89 -57 -16 -9 -37 -25 -48 -34 -10 -10 -18 -15 -18 -10 0 4 -4 2 -8 -4 -4 -6
-15 -15 -26 -21 -16 -9 -14 -11 18 -17 20 -4 36 -12 36 -18 0 -5 7 -8 15 -4 8
3 15 2 15 -3 0 -5 20 -14 44 -20 25 -6 48 -15 51 -21 3 -5 14 -10 23 -10 9 0
29 -7 44 -14 15 -8 90 -38 165 -67 76 -28 142 -55 146 -59 7 -6 -6 -77 -35
-185 -5 -22 -12 -51 -14 -65 -6 -35 -61 -251 -70 -274 -6 -15 -3 -17 13 -12
11 3 37 8 59 11 47 5 81 10 251 35 72 11 134 20 136 20 12 0 14 -30 6 -74 -5
-26 -11 -77 -15 -114 -3 -37 -8 -83 -9 -102 -2 -19 -4 -35 -5 -35 -1 0 -3 -12
-5 -27 -3 -25 -2 -26 18 -15 12 7 26 18 30 25 5 7 12 10 17 7 5 -3 44 13 87
35 73 39 78 40 90 23 85 -121 192 -211 318 -268 44 -19 89 -40 100 -45 11 -6
72 -23 135 -40 118 -31 219 -38 337 -24 l52 7 -1 96 c0 53 0 135 1 182 l1 86
46 7 c135 18 375 96 515 165 70 35 159 97 219 153 49 44 140 152 140 164 0 7
3 14 8 16 10 5 52 66 52 77 0 5 19 12 42 16 23 4 61 16 85 26 54 23 140 107
149 146 4 15 11 34 16 40 29 37 11 168 -32 238 -30 48 -28 166 5 274 32 108
28 151 -22 246 -11 21 -18 76 -24 190 -4 88 -13 183 -18 210 -23 117 -77 228
-154 316 -23 27 -67 90 -97 142 -76 130 -169 200 -300 228 -65 13 -186 71
-232 111 -47 41 -136 93 -183 108 -22 7 -44 16 -50 20 -16 12 -97 27 -133 24
l-32 -2 -2 61 c0 34 -2 96 -4 137 -1 41 -6 222 -10 403 -4 180 -11 327 -15
327 -13 0 -51 -41 -99 -105 -25 -33 -48 -62 -51 -65 -13 -11 -137 -177 -148
-197 -20 -39 -26 -36 -180 105 -53 48 -116 105 -141 127 -25 22 -46 43 -48 47
-2 4 -31 31 -65 59 -34 28 -111 97 -172 154 -60 56 -153 140 -205 186 -52 46
-110 100 -130 119 -53 51 -68 62 -73 53z m223 -330 c30 -28 66 -60 80 -71 14
-11 44 -37 66 -59 75 -72 180 -168 243 -223 34 -30 89 -80 120 -110 32 -30 82
-75 112 -100 29 -25 77 -68 105 -96 l53 -51 31 44 c18 24 45 58 61 76 16 17
29 37 29 44 0 6 6 16 13 20 8 4 22 22 33 38 22 35 44 59 48 54 2 -2 6 -85 9
-185 l6 -181 -90 -7 c-122 -9 -261 -39 -356 -76 -167 -64 -325 -197 -421 -355
-20 -33 -40 -61 -44 -63 -4 -2 -8 -12 -8 -22 0 -10 -4 -21 -9 -24 -8 -5 -71
-129 -71 -140 0 -2 -5 -17 -12 -33 -6 -15 -12 -30 -13 -33 0 -3 -10 -36 -22
-75 -30 -98 -76 -346 -89 -480 -4 -46 -14 -498 -14 -645 l0 -65 -43 -23 c-97
-51 -137 -122 -131 -230 2 -35 6 -67 9 -72 9 -15 -55 1 -93 22 -18 10 -37 18
-43 18 -6 0 -34 11 -63 24 -29 13 -75 31 -102 39 -27 8 -64 23 -83 33 l-34 17
53 31 c29 17 75 45 102 63 27 18 68 42 91 55 44 24 48 27 86 58 14 12 35 23
48 26 13 4 23 10 23 16 0 5 5 6 10 3 6 -3 10 1 10 9 0 9 3 16 8 16 4 0 13 4
21 9 11 7 7 16 -21 45 -19 20 -39 36 -44 36 -5 0 -27 17 -49 37 -22 21 -65 58
-96 83 -143 113 -184 147 -214 175 -18 17 -45 39 -60 50 -14 11 -33 27 -43 36
-9 8 -39 33 -67 55 -75 59 -95 77 -95 84 0 4 26 12 58 19 31 7 102 23 157 37
55 13 120 28 145 33 25 5 79 18 120 29 41 11 93 22 115 26 107 18 112 23 74
67 -12 13 -53 67 -92 119 -39 52 -76 100 -82 105 -6 6 -20 23 -31 39 -31 46
-52 75 -174 231 -63 81 -122 157 -130 169 -8 12 -54 72 -103 134 -48 61 -87
113 -87 115 0 3 40 -2 175 -23 33 -6 83 -12 110 -15 28 -2 82 -9 120 -15 39
-6 99 -15 135 -20 36 -6 108 -17 160 -25 52 -8 138 -19 190 -25 52 -5 116 -13
143 -16 l47 -6 -5 38 c-3 22 -8 45 -11 53 -2 7 -7 34 -10 60 -3 25 -14 105
-25 176 -12 72 -23 148 -25 170 -8 81 -25 193 -33 223 -5 17 -7 33 -4 36 3 3
0 25 -6 50 -6 25 -13 64 -16 88 -6 54 -24 168 -36 231 -5 26 -9 55 -9 64 0 19
9 13 90 -64z m982 -951 c7 -24 10 -342 5 -342 -3 0 -41 -7 -84 -15 -43 -8 -99
-15 -125 -15 -76 0 -248 -22 -248 -32 0 -35 214 -53 403 -33 66 7 78 -8 20
-25 -74 -21 -210 -31 -346 -26 -133 5 -187 -2 -187 -26 0 -5 21 -18 47 -30 44
-19 59 -20 252 -14 113 3 221 8 239 12 31 6 32 5 32 -29 0 -40 -7 -44 -130
-73 -82 -20 -227 -24 -400 -12 -58 5 -151 9 -208 9 -94 2 -105 0 -127 -21 -13
-12 -22 -16 -21 -9 4 20 24 71 36 91 6 10 10 25 10 33 0 15 57 134 69 145 4 3
28 37 55 77 43 64 68 92 149 168 89 82 295 159 462 172 38 3 72 7 74 9 9 9 19
3 23 -14z m191 -235 c4 3 7 1 7 -6 0 -7 -6 -11 -14 -8 -8 3 -17 1 -20 -6 -2
-7 -5 -1 -5 12 -1 18 2 21 12 12 8 -6 17 -8 20 -4z m57 -21 c0 -22 -18 -29
-23 -9 -3 13 -5 12 -6 -5 0 -13 -5 -21 -10 -18 -5 3 -7 15 -4 26 6 23 43 28
43 6z m24 -106 c-4 -18 -2 -22 5 -15 6 6 12 23 13 38 1 15 6 27 10 27 4 0 8 7
8 15 0 8 4 15 8 15 5 0 -2 -30 -14 -67 -25 -73 -29 -103 -15 -103 5 0 7 -10 3
-22 -3 -12 -1 -19 4 -15 6 3 10 -18 10 -51 0 -31 -2 -46 -4 -33 -3 19 -6 21
-13 10 -6 -9 -7 -2 -3 21 4 28 3 32 -6 20 -9 -12 -10 -5 -6 30 5 32 3 41 -4
30 -7 -11 -9 -6 -6 20 3 19 5 36 5 38 2 7 -5 17 -11 15 -3 -1 -2 14 4 34 5 20
6 39 1 42 -8 6 -8 16 -3 51 1 8 6 -5 11 -30 5 -25 7 -56 3 -70z m-117 58 c-3
-7 -5 -2 -5 12 0 14 2 19 5 13 2 -7 2 -19 0 -25z m139 5 c-10 -10 -19 5 -10
18 6 11 8 11 12 0 2 -7 1 -15 -2 -18z m69 -16 c-4 9 -1 11 9 7 18 -7 22 -59 6
-69 -7 -4 -9 2 -4 19 3 14 2 26 -3 26 -5 0 -15 -22 -22 -50 -7 -27 -17 -53
-22 -56 -12 -7 -1 46 13 63 5 7 8 22 6 35 -3 17 -10 5 -25 -41 -11 -35 -23
-59 -27 -53 -4 7 1 28 10 48 10 20 17 42 17 50 0 8 4 14 9 14 4 0 8 8 8 17 0
15 2 14 16 -3 8 -10 13 -13 9 -7z m-155 1 c0 -13 -18 -18 -23 -6 -4 8 -6 7 -6
-4 -1 -9 3 -18 9 -20 7 -2 6 -23 -2 -60 -7 -31 -15 -55 -19 -52 -4 2 -1 27 6
54 8 29 9 52 4 56 -18 11 -10 43 11 41 11 -1 20 -5 20 -9z m22 -5 c-5 -10 -6
-27 -1 -38 7 -19 8 -19 8 -1 1 11 3 17 6 14 8 -7 -17 -108 -26 -108 -5 0 -4
12 1 26 13 33 13 65 1 45 -8 -13 -8 -5 -2 67 1 6 6 12 11 12 7 0 7 -6 2 -17z
m176 -64 c-6 -16 -12 -28 -14 -26 -5 5 13 57 20 57 3 0 0 -14 -6 -31z m102
-10 c13 -9 12 -10 -3 -5 -14 5 -23 -5 -42 -47 -14 -28 -25 -46 -25 -39 0 7 9
32 20 54 23 47 23 48 12 48 -8 0 -42 -70 -68 -140 -12 -33 -13 -33 -14 -8 0
15 4 29 9 33 5 3 12 19 16 35 4 17 11 30 16 30 5 0 9 7 9 16 0 8 5 24 10 35
11 20 21 18 60 -12z m-353 -26 c-3 -10 -5 -2 -5 17 0 19 2 27 5 18 2 -10 2
-26 0 -35z m276 27 c-6 -22 -23 -38 -23 -21 0 17 12 41 20 41 5 0 6 -9 3 -20z
m50 -72 c-11 -24 -24 -53 -27 -65 -10 -31 -24 -29 -18 2 2 14 7 25 11 25 3 0
15 20 26 45 10 24 21 42 23 40 3 -2 -4 -24 -15 -47z m-128 12 c-4 -12 -9 -19
-12 -17 -3 3 -2 15 2 27 4 12 9 19 12 17 3 -3 2 -15 -2 -27z m162 -10 c-6 -17
-15 -30 -20 -30 -5 0 -6 8 -2 18 4 9 10 25 12 34 3 10 9 16 13 13 5 -3 3 -19
-3 -35z m-148 -14 c-9 -8 -10 -7 -5 7 3 10 7 24 7 30 1 7 3 4 6 -7 3 -10 -1
-23 -8 -30z m40 37 c0 -5 -4 -17 -9 -28 -8 -18 -9 -17 -9 8 -1 15 4 27 9 27 6
0 10 -3 9 -7z m131 -45 c-11 -23 -11 -23 10 1 11 13 19 30 16 38 -3 7 -1 13 4
13 15 0 12 -17 -10 -61 -12 -22 -18 -44 -15 -49 3 -6 1 -18 -5 -27 -9 -15 -10
-14 -4 6 4 17 3 21 -6 16 -9 -5 -10 -2 -5 14 9 30 0 26 -25 -11 -17 -27 -20
-29 -14 -9 3 14 15 33 25 44 10 11 21 34 25 51 5 20 9 25 11 14 3 -9 -1 -27
-7 -40z m84 27 c11 -8 27 -15 35 -15 9 0 29 -7 45 -15 15 -8 33 -12 39 -8 6 4
7 1 2 -7 -6 -10 -4 -12 8 -7 25 10 21 -1 -23 -53 -22 -26 -40 -52 -40 -56 0
-5 4 -2 10 6 5 8 12 11 16 7 4 -4 0 -15 -9 -24 -12 -12 -17 -13 -17 -5 0 7 -4
10 -10 7 -18 -11 2 29 32 63 15 18 28 38 27 45 0 7 -6 4 -12 -6 -27 -43 -36
-52 -41 -46 -4 3 3 17 14 32 22 27 25 37 12 37 -5 0 -17 -16 -27 -35 -25 -44
-30 -38 -11 11 12 31 13 35 1 19 -42 -59 -44 -61 -45 -42 0 9 4 17 8 17 5 0
14 11 20 25 7 15 8 25 2 25 -6 0 -10 -4 -10 -9 0 -5 -16 -33 -36 -62 -30 -44
-34 -48 -29 -24 l7 30 -21 -30 c-14 -21 -21 -25 -21 -13 0 9 6 23 13 30 7 7
16 21 20 32 5 12 13 16 24 12 17 -7 33 9 33 33 0 11 -4 9 -16 -5 -15 -19 -15
-18 -11 4 7 32 -8 27 -23 -8 -13 -32 -40 -60 -40 -42 0 6 7 17 15 25 7 8 17
26 21 41 7 30 12 31 38 11z m-407 -27 c-3 -8 -6 -5 -6 6 -1 11 2 17 5 13 3 -3
4 -12 1 -19z m-56 -24 c-5 -16 -10 -21 -10 -12 -1 18 10 51 15 45 2 -1 -1 -16
-5 -33z m26 -1 c-3 -10 -5 -4 -5 12 0 17 2 24 5 18 2 -7 2 -21 0 -30z m56 17
c-3 -11 -7 -20 -9 -20 -2 0 -4 9 -4 20 0 11 4 20 9 20 5 0 7 -9 4 -20z m89
-25 c-2 -14 -6 -25 -8 -25 -2 0 -4 11 -4 25 0 14 4 25 9 25 4 0 6 -11 3 -25z
m22 -2 c-4 -16 -13 -39 -21 -53 -9 -15 -12 -17 -8 -5 4 11 11 35 17 53 11 39
21 43 12 5z m-147 -5 c-3 -8 -6 -5 -6 6 -1 11 2 17 5 13 3 -3 4 -12 1 -19z
m170 -15 c-3 -10 -5 -4 -5 12 0 17 2 24 5 18 2 -7 2 -21 0 -30z m50 15 c-16
-44 -18 -60 -8 -54 13 8 13 -1 1 -29 -8 -18 -9 -18 -10 5 -1 23 -2 23 -10 5
-5 -11 -9 -16 -9 -10 -1 13 30 95 36 95 3 0 3 -6 0 -12z m43 -25 c-11 -17 -11
-17 -6 0 3 10 6 24 7 30 0 9 2 9 5 0 3 -7 0 -20 -6 -30z m311 14 c-10 -9 -11
-8 -5 6 3 10 9 15 12 12 3 -3 0 -11 -7 -18z m42 6 c-9 -3 -10 -10 -4 -21 7
-13 -2 -28 -37 -62 l-45 -45 37 44 c42 52 48 75 9 40 -14 -13 -23 -18 -19 -11
4 6 3 12 -1 12 -5 0 -15 -6 -22 -12 -11 -11 -11 -9 0 9 7 11 18 19 24 17 6 -3
20 4 30 16 10 11 23 20 29 19 6 0 6 -3 -1 -6z m-643 -23 c0 -5 -5 -10 -11 -10
-5 0 -7 5 -4 10 3 6 8 10 11 10 2 0 4 -4 4 -10z m20 -10 c0 -11 -4 -20 -9 -20
-5 0 -7 9 -4 20 3 11 7 20 9 20 2 0 4 -9 4 -20z m17 -12 c-3 -7 -5 -2 -5 12 0
14 2 19 5 13 2 -7 2 -19 0 -25z m37 26 c23 -9 20 -23 -4 -17 -11 3 -20 9 -20
14 0 11 3 11 24 3z m596 -4 c0 -5 -4 -10 -10 -10 -5 0 -10 5 -10 10 0 6 5 10
10 10 6 0 10 -4 10 -10z m-468 -37 c-3 -16 -7 -22 -10 -15 -4 13 4 42 11 42 2
0 2 -12 -1 -27z m121 -12 c-19 -33 -37 -43 -26 -14 7 17 36 51 41 48 1 -1 -5
-16 -15 -34z m408 -3 c-11 -11 -13 -10 -7 0 4 7 2 21 -5 30 -12 15 -11 15 6 0
16 -15 17 -20 6 -30z m-287 15 c-5 -15 -3 -15 10 1 21 26 21 7 0 -22 -15 -22
-15 -24 1 -36 14 -10 15 -16 6 -34 -6 -12 -14 -22 -17 -22 -2 0 0 9 6 19 15
29 12 39 -7 16 -15 -20 -15 -19 -10 5 6 24 5 24 -8 6 -21 -28 -19 -6 2 24 11
16 13 25 5 28 -6 2 -8 10 -5 18 8 20 23 17 17 -3z m-183 -20 c-12 -20 -14 -14
-5 12 4 9 9 14 11 11 3 -2 0 -13 -6 -23z m225 1 c-4 -9 -9 -15 -11 -12 -3 3
-3 13 1 22 4 9 9 15 11 12 3 -3 3 -13 -1 -22z m-148 -9 c-6 -14 -13 -23 -15
-21 -5 5 15 46 22 46 3 0 -1 -11 -7 -25z m301 2 c-13 -13 -26 -22 -28 -20 -7
5 31 43 42 43 6 0 -1 -10 -14 -23z m-85 -17 c-10 -16 -20 -27 -22 -25 -5 5 26
55 34 55 3 0 -3 -13 -12 -30z m-203 -7 c-12 -20 -14 -14 -5 12 4 9 9 14 11 11
3 -2 0 -13 -6 -23z m63 15 c-3 -5 -9 -6 -14 -3 -5 3 -14 -4 -20 -16 -7 -11
-14 -18 -17 -16 -10 11 18 46 36 44 11 0 17 -5 15 -9z m280 4 c3 -5 -16 -29
-42 -53 -25 -24 -38 -33 -27 -19 11 14 25 29 30 33 6 6 6 10 -3 14 -6 2 -9 9
-6 14 3 6 12 5 22 -3 13 -11 15 -10 9 5 -6 17 7 24 17 9z m52 -72 c-24 -25
-42 -52 -39 -60 3 -11 1 -10 -7 2 -8 14 -2 24 34 59 27 26 42 48 39 58 -4 14
-4 14 6 1 8 -12 1 -25 -33 -60z m-355 27 c-10 -9 -11 -8 -5 6 3 10 9 15 12 12
3 -3 0 -11 -7 -18z m195 -5 c-17 -16 -18 -16 -5 5 7 12 15 20 18 17 3 -2 -3
-12 -13 -22z m119 9 c-3 -6 -11 -11 -16 -11 -5 0 -4 6 3 14 14 16 24 13 13 -3z
m-215 -10 c-15 -29 -12 -39 5 -17 18 23 21 0 4 -24 -8 -11 -12 -12 -16 -2 -2
6 -9 9 -15 6 -5 -3 -2 8 6 25 9 17 19 31 22 31 2 0 0 -9 -6 -19z m64 -6 c-4
-9 -1 -15 7 -15 10 0 10 -3 2 -11 -13 -13 -6 -42 8 -33 5 3 7 10 4 15 -3 5 1
6 10 3 14 -6 14 -8 -2 -26 -10 -11 -19 -15 -21 -9 -2 6 -8 9 -13 6 -5 -4 -6 2
-2 12 5 15 3 16 -8 6 -20 -19 -33 -16 -14 3 9 9 13 19 10 22 -3 4 -10 0 -15
-8 -12 -18 -12 -2 0 25 6 14 9 15 10 5 0 -12 3 -11 11 3 12 21 20 23 13 2z
m76 11 c0 -3 -4 -8 -10 -11 -5 -3 -10 -1 -10 4 0 6 5 11 10 11 6 0 10 -2 10
-4z m100 0 c0 -2 -8 -10 -17 -17 -16 -13 -17 -12 -4 4 13 16 21 21 21 13z
m-542 -57 c104 -28 199 -67 262 -109 30 -21 70 -45 88 -54 43 -22 165 -138
216 -205 54 -72 96 -131 96 -136 0 -2 11 -28 24 -57 132 -294 149 -659 45
-971 -37 -109 -75 -181 -144 -273 -162 -212 -383 -327 -782 -409 l-33 -7 0
180 0 180 73 6 c39 3 107 8 150 12 43 4 77 11 77 17 0 6 -20 29 -43 52 -51 48
-158 95 -217 95 l-40 0 0 103 c0 93 2 106 21 123 27 24 49 67 49 94 0 25 -33
92 -54 109 -13 11 -16 36 -16 135 l0 121 19 -40 c24 -53 94 -129 156 -170 102
-68 302 -89 390 -42 11 6 26 12 33 13 23 4 95 57 135 99 22 22 57 78 79 124
l40 84 -4 101 c-4 92 -8 107 -42 176 -77 154 -247 257 -407 249 -116 -6 -245
-61 -303 -128 -17 -19 -37 -41 -45 -48 -7 -7 -21 -30 -32 -51 -18 -37 -18 -35
-19 312 l0 348 78 -7 c42 -4 110 -15 150 -26z m582 16 c-7 -9 -15 -13 -19 -10
-3 3 1 10 9 15 21 14 24 12 10 -5z m-1560 -19 c47 -2 146 -7 220 -11 107 -6
154 -4 230 9 174 32 170 31 170 7 0 -26 -18 -34 -125 -61 -64 -16 -100 -18
-180 -14 -55 3 -188 7 -295 8 -197 3 -240 10 -240 41 0 28 37 43 88 34 26 -5
85 -11 132 -13z m1603 9 c4 -8 3 -16 -1 -19 -4 -3 -9 4 -9 15 -2 23 3 25 10 4z
m-213 -46 c-7 -11 -14 -18 -17 -15 -3 3 0 12 7 21 18 21 23 19 10 -6z m26 -11
c-9 -12 -16 -19 -16 -15 0 11 24 47 28 42 2 -2 -3 -14 -12 -27z m-1675 -29
c28 -40 84 -50 294 -54 105 -1 205 -6 223 -10 69 -16 230 -216 249 -307 5 -26
3 -28 -30 -28 -20 0 -91 5 -159 10 -173 15 -254 4 -597 -77 -23 -6 -24 -5 -17
41 8 52 21 87 72 190 39 79 38 76 19 76 -17 0 -67 -60 -95 -115 -25 -47 -50
-159 -50 -219 0 -64 34 -182 66 -229 49 -71 110 -125 183 -161 143 -71 283
-70 444 4 65 29 174 141 210 213 74 152 57 342 -42 467 -51 64 -61 75 -104
103 -21 14 -34 28 -30 30 5 3 41 8 80 11 40 4 88 13 107 21 20 8 40 15 46 15
7 0 10 -205 10 -635 0 -369 -4 -635 -9 -635 -15 0 -51 78 -66 142 -9 41 -12
88 -8 143 7 97 -2 156 -21 149 -24 -9 -41 -119 -40 -254 1 -122 8 -139 90
-242 l54 -67 0 -95 0 -96 -68 0 c-147 0 -355 -36 -454 -79 -69 -29 -158 -98
-158 -121 0 -20 24 -28 35 -11 12 21 127 68 235 97 61 17 53 21 99 -55 18 -29
41 -47 92 -72 57 -29 71 -40 80 -69 33 -97 79 -172 115 -189 l26 -11 -4 -183
-3 -182 -55 -1 c-133 -3 -358 70 -483 157 -48 34 -156 148 -182 194 -68 117
-135 249 -135 267 0 6 -6 24 -14 41 -44 98 -92 322 -100 467 -5 82 -12 254
-21 525 -4 114 0 217 20 500 10 136 63 407 73 374 3 -7 13 -26 23 -40z m1729
22 c0 -5 -12 -16 -27 -25 l-28 -17 23 20 c14 12 20 25 16 32 -4 8 -3 9 4 5 7
-4 12 -11 12 -15z m113 -6 c-3 -9 -8 -14 -10 -11 -3 3 -2 9 2 15 9 16 15 13 8
-4z m57 11 c0 -3 -4 -8 -10 -11 -5 -3 -10 -1 -10 4 0 6 5 11 10 11 6 0 10 -2
10 -4z m30 -10 c0 -2 -8 -10 -17 -17 -16 -13 -17 -12 -4 4 13 16 21 21 21 13z
m-180 -9 c0 -2 -11 -14 -25 -27 -14 -13 -25 -21 -25 -17 0 3 10 15 22 27 21
19 28 24 28 17z m228 -102 c-3 -3 -9 2 -12 12 -6 14 -5 15 5 6 7 -7 10 -15 7
-18z m-65 -100 c-3 -9 -8 -14 -10 -11 -3 3 -2 9 2 15 9 16 15 13 8 -4z m147
-35 c0 -5 -2 -10 -4 -10 -3 0 -8 5 -11 10 -3 6 -1 10 4 10 6 0 11 -4 11 -10z
m-80 -94 c0 -3 -4 -8 -10 -11 -5 -3 -10 -1 -10 4 0 6 5 11 10 11 6 0 10 -2 10
-4z m70 0 c0 -2 -7 -7 -16 -10 -8 -3 -12 -2 -9 4 6 10 25 14 25 6z m31 -29
c-10 -9 -11 -8 -5 6 3 10 9 15 12 12 3 -3 0 -11 -7 -18z m-542 -53 c102 -34
167 -90 221 -189 31 -57 32 -65 32 -165 0 -109 -3 -122 -60 -208 -80 -123
-263 -189 -408 -147 -116 33 -194 101 -248 215 -26 56 -30 76 -31 150 0 76 3
92 33 152 85 171 278 252 461 192z m526 -28 c-29 -23 -45 -20 -45 9 0 6 4 4 9
-4 7 -11 13 -11 32 3 35 24 38 19 4 -8z m-1360 -31 l90 -1 -3 -30 c-10 -90
-72 -199 -149 -260 -81 -65 -203 -114 -284 -114 -89 0 -212 55 -283 126 -32
33 -80 123 -90 171 -7 30 -6 32 41 47 89 29 195 54 209 49 8 -3 14 -10 14 -17
1 -6 8 -20 18 -31 58 -69 134 -74 175 -12 15 23 14 26 -5 47 -32 34 -8 42 92
34 47 -4 126 -8 175 -9z m1386 -88 c-13 -13 -21 5 -14 33 l6 24 9 -24 c5 -14
5 -27 -1 -33z m4 -37 c3 -5 1 -10 -4 -10 -6 0 -11 5 -11 10 0 6 2 10 4 10 3 0
8 -4 11 -10z m45 -79 c0 -5 -9 -7 -20 -4 -11 3 -20 7 -20 9 0 2 9 4 20 4 11 0
20 -4 20 -9z m17 -27 c-3 -3 -12 -4 -19 -1 -8 3 -5 6 6 6 11 1 17 -2 13 -5z
m-14 -21 c-7 -2 -19 -2 -25 0 -7 3 -2 5 12 5 14 0 19 -2 13 -5z m21 -34 c-3
-5 0 -9 5 -9 6 0 11 -13 11 -29 0 -20 -6 -30 -20 -34 -11 -3 -20 -1 -20 4 0 5
7 9 15 9 17 0 19 9 6 29 -5 7 -14 10 -20 7 -6 -4 -11 -2 -11 3 0 6 5 11 10 11
6 0 10 4 10 10 0 5 -8 7 -17 4 -14 -5 -15 -4 -4 4 16 12 44 4 35 -9z m-7 -45
c-3 -3 -12 -4 -19 -1 -8 3 -5 6 6 6 11 1 17 -2 13 -5z m-7 -54 c0 -5 -2 -10
-4 -10 -3 0 -8 5 -11 10 -3 6 -1 10 4 10 6 0 11 -4 11 -10z m-2372 -609 l-3
-24 -33 28 c-49 42 -65 79 -59 141 5 49 21 86 56 128 15 17 17 8 29 -115 6
-74 11 -145 10 -158z m2396 195 c20 -42 21 -116 2 -160 -14 -33 -72 -86 -94
-86 -17 0 -15 28 6 91 10 30 18 59 18 64 0 6 4 28 8 49 5 22 10 49 11 60 1 12
3 25 4 30 2 15 28 -13 45 -48z m-2449 -305 c22 -14 49 -28 60 -31 15 -4 22
-18 27 -50 4 -25 18 -79 31 -121 l24 -76 -101 -18 c-231 -40 -250 -40 -227 2
7 14 42 136 46 163 1 6 18 83 20 90 1 3 7 30 14 61 l13 56 27 -25 c14 -13 44
-36 66 -51z m1378 -107 c26 -9 49 -19 51 -22 2 -4 -29 -7 -70 -7 -70 0 -74 1
-74 23 0 27 26 29 93 6z m-232 -13 c3 0 4 -58 3 -128 -3 -203 -4 -217 -11
-210 -10 11 -41 103 -53 161 -10 48 -13 53 -34 49 -13 -3 -27 0 -30 6 -4 6
-15 11 -24 11 -19 0 -102 72 -102 88 0 6 30 13 68 17 37 4 72 8 77 9 9 3 93 1
106 -3z m-883 -448 c-6 -7 -17 -13 -25 -13 -11 0 -13 9 -9 38 3 20 5 39 6 42
0 3 9 -8 20 -25 14 -21 16 -33 8 -42z"/>
<path d="M2906 3041 c-4 -7 -5 -15 -2 -18 9 -9 19 4 14 18 -4 11 -6 11 -12 0z"/>
<path d="M2643 2609 c-81 -24 -13 -57 136 -65 58 -3 114 -14 174 -34 135 -45
207 -37 144 16 -37 30 -62 42 -103 49 -22 4 -52 11 -69 15 -75 21 -240 33
-282 19z"/>
<path d="M2080 1835 c-26 -32 -96 -72 -165 -97 -112 -40 -204 -33 -388 29 -71
24 -79 25 -93 11 -15 -15 -14 -18 12 -35 30 -19 60 -32 168 -69 51 -18 90 -24
152 -24 76 0 105 6 189 40 48 19 195 95 195 100 0 4 -13 19 -28 34 -26 24 -30
25 -42 11z"/>
<path d="M1590 1158 c0 -8 -8 -29 -18 -49 -10 -19 -26 -57 -36 -84 -10 -28
-22 -54 -27 -59 -7 -8 51 -70 139 -149 20 -18 21 -18 32 3 11 20 7 28 -39 74
-54 54 -63 84 -41 140 5 14 11 42 14 63 2 21 6 44 8 52 1 8 -5 17 -14 19 -10
2 -18 -2 -18 -10z"/>
<path d="M2870 2099 c0 -5 -11 -9 -24 -9 -29 0 -56 -50 -56 -103 0 -79 92
-117 145 -60 14 15 26 32 26 38 6 48 4 63 -12 87 -20 28 -79 63 -79 47z"/>
</g>
</svg>
